<svg width="960" height="143" viewBox="0 0 960 143" fill="none" xmlns="http://www.w3.org/2000/svg">
<path d="M0 8L80 10.2C160 12.3 320 16.7 480 15.3C640 14 800 7 880 3.5L960 0V143H880C800 143 640 143 480 143C320 143 160 143 80 143H0V8Z" fill="#FDDED5"/>
<path d="M0 13L80 18.5C160 24 320 35 480 39.2C640 43.3 800 40.7 880 39.3L960 38V143H880C800 143 640 143 480 143C320 143 160 143 80 143H0V13Z" fill="#FFB197"/>
<path d="M0 70L80 70.3C160 70.7 320 71.3 480 66C640 60.7 800 49.3 880 43.7L960 38V143H880C800 143 640 143 480 143C320 143 160 143 80 143H0V70Z" fill="#FF825B"/>
<path d="M0 89L80 91.8C160 94.7 320 100.3 480 102C640 103.7 800 101.3 880 100.2L960 99V143H880C800 143 640 143 480 143C320 143 160 143 80 143H0V89Z" fill="#FB4B1A"/>
</svg>
